IKResults
version=1
nRows=5
nColumns=40
inDegrees=yes

Units are S.I. units (second, meters, Newtons, ...)
Angles are in degrees.

endheader
time	pelvis_tilt	pelvis_list	pelvis_rotation	pelvis_tx	pelvis_ty	pelvis_tz	hip_flexion_r	hip_adduction_r	hip_rotation_r	knee_angle_r	knee_angle_r_beta	ankle_angle_r	subtalar_angle_r	mtp_angle_r	hip_flexion_l	hip_adduction_l	hip_rotation_l	knee_angle_l	knee_angle_l_beta	ankle_angle_l	subtalar_angle_l	mtp_angle_l	lumbar_extension	lumbar_bending	lumbar_rotation	arm_flex_r	arm_add_r	arm_rot_r	elbow_flex_r	pro_sup_r	wrist_flex_r	wrist_dev_r	arm_flex_l	arm_add_l	arm_rot_l	elbow_flex_l	pro_sup_l	wrist_flex_l	wrist_dev_l
      0.28000000	     13.87943934	      1.36821112	     -6.09153302	     -0.40085710	      0.90257514	      0.99171508	    -29.22538367	     -3.96704935	     -2.50156654	    -30.91209640	     -0.53951786	      3.93389620	     -7.20278459	     -2.78522178	     13.88947548	      0.83634159	     20.62944503	    -22.73224734	     -0.39675256	      4.98125240	      3.94725685	     -6.07774274	    -18.91684902	     -5.33898955	      7.42746679	      1.66067326	    -16.72503535	     -2.73196247	     52.98141075	     89.95437384	      0.00000000	      0.00000000	    -13.74472296	      9.75066266	     16.36547537	      8.89633405	     89.95437384	      0.00000000	      0.00000000
      0.29000000	     14.36320723	      1.75584925	     -6.13949066	     -0.38421684	      0.90447162	      0.99110396	    -29.10397844	     -4.35245499	     -2.35595268	    -33.27368540	     -0.58073536	     -0.45362013	     -9.59398426	     -1.64191755	     13.26366394	      0.23110190	     19.19278781	    -24.33446795	     -0.42471659	      4.80645917	      5.50407391	     -6.29260617	    -19.23405973	     -5.92545320	      7.24498597	      1.31358472	    -16.29227542	     -2.89371638	     52.49220888	     89.95437384	      0.00000000	      0.00000000	    -13.77495294	      9.86973082	     15.71639190	      8.93977767	     89.95437384	      0.00000000	      0.00000000
      0.30000000	     15.03637703	      2.39083574	     -6.21894736	     -0.36758093	      0.90711353	      0.99021337	    -28.85666999	     -5.21496684	     -2.84311678	    -36.03349451	     -0.62890312	     -5.05440836	    -10.92905063	     -0.42585249	     12.19367849	     -0.77349848	     17.81106504	    -25.57961093	     -0.44644843	      4.26074770	      6.23849414	     -6.13149373	    -19.76211881	     -6.76173736	      6.98500189	      0.91900906	    -15.85013365	     -3.03095665	     51.92624303	     89.95437384	      0.00000000	      0.00000000	    -13.61351131	      9.99511172	     15.13805285	      8.96851656	     89.95437384	      0.00000000	      0.00000000
      0.31000000	     15.68269177	      2.97056138	     -6.22474365	     -0.35110020	      0.91007700	      0.98915801	    -28.38071620	     -6.05691645	     -3.42050311	    -38.94828794	     -0.67977586	     -8.88492471	    -11.64914696	      0.52532685	     10.94413622	     -1.72588792	     16.75381536	    -26.30668832	     -0.45913833	      3.47265768	      6.47475117	     -5.93930783	    -20.29898423	     -7.49652858	      6.61400462	      0.52180298	    -15.44984063	     -3.02554743	     51.26331507	     89.95437384	      0.00000000	      0.00000000	    -13.33627061	     10.09932578	     14.61140208	      9.02175411	     89.95437384	      0.00000000	      0.00000000
      0.32000000	     16.28784469	      3.51680032	     -6.18039685	     -0.33495772	      0.91308076	      0.98788089	    -27.66032728	     -6.90291870	     -4.05445195	    -42.02471593	     -0.73346966	    -12.04932097	    -12.53439380	      1.45123443	      9.55697230	     -2.67775328	     15.99726856	    -26.62019816	     -0.46461011	      2.80979927	      6.74871811	     -5.73349366	    -20.85733336	     -8.14338224	      6.10347122	      0.18257563	    -14.99547744	     -3.01958069	     50.53082807	     89.95437384	      0.00000000	      0.00000000	    -13.03417737	     10.15906433	     14.03761552	      9.27560689	     89.95437384	      0.00000000	      0.00000000
